<?xml version="1.0" encoding="utf-8"?>
<!-- Generator: Adobe Illustrator 24.0.1, SVG Export Plug-In . SVG Version: 6.00 Build 0)  -->
<svg version="1.1" id="Layer_1" xmlns="http://www.w3.org/2000/svg" xmlns:xlink="http://www.w3.org/1999/xlink" x="0px" y="0px"
	 viewBox="0 0 1366 768" style="enable-background:new 0 0 1366 768;" xml:space="preserve">
<style type="text/css">
	.st0{fill:#F1F2F2;stroke:#754C29;stroke-width:3;stroke-miterlimit:10;}
	.st1{fill:#F1F2F2;stroke:#754C29;stroke-width:7;stroke-miterlimit:10;}
	.st2{fill:#603913;}
	.st3{fill:#F1F2F2;}
</style>
<g>
	<path class="st0" d="M652.44,173.89c-145.46,0-263.38,114.13-263.38,254.93c0,140.79,117.92,254.93,263.38,254.93
		s263.38-114.14,263.38-254.93C915.82,288.02,797.9,173.89,652.44,173.89z M558.41,613.99c-33.61,0-63.11-34.01-79.73-85.17
		c-9.07-27.87-14.3-60.83-14.3-96.15c0-32.66,4.48-63.31,12.32-89.77c16.19-54.69,46.72-91.55,81.71-91.55
		c9.5,0,18.66,2.71,27.3,7.76c-23.21,13.55-42.62,43.93-54.42,83.79c-7.84,26.46-12.32,57.11-12.32,89.77
		c0,35.32,5.24,68.28,14.31,96.15c11.92,36.71,30.47,64.59,52.43,77.41C577.07,611.28,567.91,613.99,558.41,613.99z M624.52,303.73
		c-6.27,11.52-11.71,24.7-16.13,39.17c-8.28,26.99-13.02,58.46-13.02,92.07c0,34.35,4.95,66.47,13.56,93.85
		c4.03,12.83,8.86,24.61,14.36,35.09c0,0.01,0,0.01,0,0.01c-7.87,14.47-17.04,26.33-27.13,34.87
		c-17.48-14.71-32.17-39.26-42.12-69.97c-8.84-27.29-13.94-59.44-13.94-93.85c0-33.67,4.88-65.17,13.38-92.07
		c10.45-33.13,26.38-59.29,45.4-73.94c9.54,8.78,18.2,20.58,25.64,34.76V303.73z M716.57,452.66
		c-3.99,22.74-12.72,44.67-25.31,63.19c-3.67,5.4-11.26,0.77-8.63-5.05c9.42-20.86,15.95-43.63,19.38-66.24
		c2.17-14.32,4.48-35.82-3.53-50.02c2.68,24.69,8.28,62.65-19.99,60.41c-2.55-0.2-5.19-2.15-5-5c1.59-23.69,6.66-47.15,14.05-69.68
		c0.01-0.25,0.02-0.49,0.03-0.74c0.4-6.01,9.25-6.4,9.97-1.09c2.02,1.63,3.83,3.45,5.43,5.42c-3.75-11.38-9.26-22.13-16.75-31.78
		c-3.9-5.03,3.13-12.15,7.07-7.07c22,28.33,29,65.08,24.36,100.54C719.11,447.71,718.75,451.08,716.57,452.66z"/>
	<path class="st1" d="M689.7,409.47c-2.67,11.4-4.64,22.95-5.73,34.59c7.42-3.6,6.79-16.83,6.52-24.46
		C690.38,416.23,690.07,412.85,689.7,409.47z"/>
	<path class="st2" d="M585.71,606.23c-8.64,5.05-17.8,7.76-27.3,7.76c-33.61,0-63.11-34.01-79.73-85.17
		c-9.07-27.87-14.3-60.83-14.3-96.15c0-32.66,4.48-63.31,12.32-89.77h54.59c-7.84,26.46-12.32,57.11-12.32,89.77
		c0,35.32,5.24,68.28,14.31,96.15C545.2,565.53,563.75,593.41,585.71,606.23z"/>
	<path class="st2" d="M585.71,259.11c-23.21,13.55-42.62,43.93-54.42,83.79H476.7c16.19-54.69,46.72-91.55,81.71-91.55
		C567.91,251.35,577.07,254.06,585.71,259.11z"/>
	<path class="st3" d="M596.16,598.79c-3.38,2.86-6.87,5.35-10.45,7.44c-21.96-12.82-40.51-40.7-52.43-77.41
		c-9.07-27.87-14.31-60.83-14.31-96.15c0-32.66,4.48-63.31,12.32-89.77c11.8-39.86,31.21-70.24,54.42-83.79
		c4.54,2.65,8.94,5.95,13.17,9.85c-19.02,14.65-34.95,40.81-45.4,73.94c-8.5,26.9-13.38,58.4-13.38,92.07
		c0,34.41,5.1,66.56,13.94,93.85C563.99,559.53,578.68,584.08,596.16,598.79z"/>
	<path class="st3" d="M652.44,432.67c0,35.32-5.23,68.28-14.3,96.15c-4.18,12.87-9.18,24.66-14.85,35.09
		c-5.5-10.48-10.33-22.26-14.36-35.09c-8.61-27.38-13.56-59.5-13.56-93.85c0-33.61,4.74-65.08,13.02-92.07
		c4.42-14.47,9.86-27.65,16.13-39.17c6.07,11.58,11.34,24.75,15.6,39.17C647.96,369.36,652.44,400.01,652.44,432.67z"/>
	<path class="st3" d="M683.97,444.06c7.42-3.6,6.79-16.83,6.52-24.46c-0.12-3.36-0.42-6.74-0.79-10.12
		C687.04,420.86,685.06,432.42,683.97,444.06z"/>
	<path class="st3" d="M691.26,515.85c-3.67,5.4-11.26,0.77-8.63-5.05c9.42-20.86,15.95-43.63,19.38-66.24
		c2.17-14.32,4.48-35.82-3.53-50.02c2.68,24.69,8.28,62.65-19.99,60.41c-2.55-0.2-5.19-2.15-5-5c1.59-23.69,6.66-47.15,14.05-69.68
		c0.01-0.25,0.02-0.49,0.03-0.74c0.4-6.01,9.25-6.4,9.97-1.09c2.02,1.63,3.83,3.45,5.43,5.42c-3.75-11.38-9.26-22.13-16.75-31.78
		c-3.9-5.03,3.13-12.15,7.07-7.07c1.12,1.44,2.2,2.91,3.24,4.39c-9.57-35.62-25.08-64.35-44.01-81.28
		c-5.83-5.22-11.98-9.32-18.39-12.16h-0.01c-6.79-3.01-13.86-4.6-21.13-4.6c-9.49,0-18.65,2.71-27.29,7.76
		c-23.21,13.55-42.62,43.93-54.42,83.79c-7.84,26.46-12.32,57.11-12.32,89.77c0,35.32,5.24,68.28,14.31,96.15
		c11.92,36.71,30.47,64.59,52.43,77.41c8.64,5.05,17.8,7.76,27.29,7.76c3.56,0,7.06-0.38,10.52-1.13c0.01,0.01,0.02,0,0.02,0
		c9.24-1.98,18.08-6.56,26.32-13.33c22.74-18.7,40.86-54.19,50.22-98.38C697.39,506.24,694.45,511.15,691.26,515.85z M624.52,303.73
		c-6.27,11.52-11.71,24.7-16.13,39.17c-8.28,26.99-13.02,58.46-13.02,92.07c0,34.35,4.95,66.47,13.56,93.85
		c4.03,12.83,8.86,24.61,14.36,35.09c0,0.01,0,0.01,0,0.01c-7.87,14.47-17.04,26.33-27.13,34.87
		c-17.48-14.71-32.17-39.26-42.12-69.97c-8.84-27.29-13.94-59.44-13.94-93.85c0-33.67,4.88-65.17,13.38-92.07
		c10.45-33.13,26.38-59.29,45.4-73.94c9.54,8.78,18.2,20.58,25.64,34.76V303.73z"/>
	<path class="st2" d="M629.86,314.31v0.01c-7.27,15.03-13.58,32.23-18.71,51.11h-63.69c12.12-43.23,30.6-77.36,52.66-96.48
		C611.19,280.42,621.23,295.81,629.86,314.31z"/>
	<path class="st2" d="M623.29,563.91c0,0.01,0,0.01,0,0.01c-7.87,14.47-17.04,26.33-27.13,34.87
		c-17.48-14.71-32.17-39.26-42.12-69.97h54.89C612.96,541.65,617.79,553.43,623.29,563.91z"/>
	<path class="st3" d="M689.7,409.47c-2.67,11.4-4.64,22.95-5.73,34.59c7.42-3.6,6.79-16.83,6.52-24.46
		C690.38,416.23,690.07,412.85,689.7,409.47z"/>
	<path class="st3" d="M659.9,262.76c-8.18-4.43-16.83-6.81-25.76-6.81h-0.01c-12.47,0-24.37,4.62-35.25,13.01
		c9.54,8.78,18.2,20.58,25.64,34.76v0.01c-6.27,11.52-11.71,24.7-16.13,39.17c-8.28,26.99-13.02,58.46-13.02,92.07
		c0,34.35,4.95,66.47,13.56,93.85c4.03,12.83,8.86,24.61,14.36,35.09c0,0.01,0,0.01,0,0.01c-7.87,14.47-17.04,26.33-27.13,34.87
		c8.53,7.18,17.72,12.01,27.36,14.07c0.01,0.01,0.02,0,0.02,0c3.48,0.75,7.01,1.13,10.59,1.13c8.94,0,17.58-2.37,25.77-6.81
		c39.4-21.33,68.26-90.35,68.26-172.21S699.3,284.09,659.9,262.76z M716.57,452.66c-3.99,22.74-12.72,44.67-25.31,63.19
		c-3.67,5.4-11.26,0.77-8.63-5.05c9.42-20.86,15.95-43.63,19.38-66.24c2.17-14.32,4.48-35.82-3.53-50.02
		c2.68,24.69,8.28,62.65-19.99,60.41c-2.55-0.2-5.19-2.15-5-5c1.59-23.69,6.66-47.15,14.05-69.68c0.01-0.25,0.02-0.49,0.03-0.74
		c0.4-6.01,9.25-6.4,9.97-1.09c2.02,1.63,3.83,3.45,5.43,5.42c-3.75-11.38-9.26-22.13-16.75-31.78c-3.9-5.03,3.13-12.15,7.07-7.07
		c22,28.33,29,65.08,24.36,100.54C719.11,447.71,718.75,451.08,716.57,452.66z"/>
	<path class="st3" d="M689.7,409.47c-2.67,11.4-4.64,22.95-5.73,34.59c7.42-3.6,6.79-16.83,6.52-24.46
		C690.38,416.23,690.07,412.85,689.7,409.47z"/>
	<path class="st3" d="M689.39,253.65c-10.3,0-20.22,3.19-29.49,9.11c-2.51,1.58-4.96,3.37-7.37,5.35
		c-10.44,8.59-19.91,20.72-28.01,35.61v0.01c-6.27,11.52-11.71,24.7-16.13,39.17c-8.28,26.99-13.02,58.46-13.02,92.07
		c0,34.35,4.95,66.47,13.56,93.85c4.03,12.83,8.86,24.61,14.36,35.09c0,0.01,0,0.01,0,0.01c7.68,14.64,16.66,26.74,26.57,35.61
		c3.25,2.91,6.6,5.48,10.04,7.65c9.27,5.92,19.19,9.11,29.49,9.11c51.93,0,94.03-81.18,94.03-181.32S741.32,253.65,689.39,253.65z"
		/>
	<path class="st3" d="M478.68,528.82h-43.14V342.9h41.16c-7.84,26.46-12.32,57.11-12.32,89.77
		C464.38,467.99,469.61,500.95,478.68,528.82z"/>
	<path class="st3" d="M608.93,528.82h-54.89c-8.84-27.29-13.94-59.44-13.94-93.85c0-33.67,4.88-65.17,13.38-92.07h54.91
		c-8.28,26.99-13.02,58.46-13.02,92.07C595.37,469.32,600.32,501.44,608.93,528.82z"/>
	<path class="st3" d="M554.04,528.82h-20.76c-9.07-27.87-14.31-60.83-14.31-96.15c0-32.66,4.48-63.31,12.32-89.77h22.19
		c-8.5,26.9-13.38,58.4-13.38,92.07C540.1,469.38,545.2,501.53,554.04,528.82z"/>
	<path class="st3" d="M673.49,449.94c0.55-8.25,1.54-16.47,2.89-24.64V342.9h-67.99c-8.28,26.99-13.02,58.46-13.02,92.07
		c0,34.35,4.95,66.47,13.56,93.85h67.45v-74.45C674.68,453.56,673.36,451.99,673.49,449.94z"/>
</g>
<path class="st2" d="M514.18,525.63h-5.05c-2.3,0-4.17-1.87-4.17-4.17V362.72c0-4.65-6.45-5.82-8.08-1.47l0,0
	c-0.24,0.65-0.32,1.35-0.23,2.03l21.67,157.6C518.66,523.4,516.71,525.63,514.18,525.63z"/>
<path class="st2" d="M820.44,457.2"/>
<path class="st2" d="M789.54,535.31c0.07-0.51,0.13-1.02,0.21-1.52"/>
<path class="st2" d="M739.61,445.83c-3.84,28.03-16.74,52.05-30.36,76.02c2.14,3.02,4.38,5.84,6.71,8.45
	c10.71-12.77,18.36-27.45,23.18-43.47c4.31-14.34,6.66-29.16,8.97-43.93c2.56-16.32,6.3-32.62,7.73-49.09
	c2.64-30.39-4-59.44-23.71-82.71c-3.6,2.17-7.07,4.79-10.39,7.81c10.04,9,15.61,21.73,18.31,35.02c3.02,14.88,3.18,30.22,2.6,45.35
	C742.07,414.73,741.71,430.52,739.61,445.83z"/>
<path class="st2" d="M757.51,303.73c-2.05,0-4.08,0.14-6.09,0.41c0.52,0.49,1.04,0.98,1.56,1.47c13.11,1.2,23.31,8.15,31.38,17.85
	c7.41,6.31,13.83,13.8,18.94,22.45c20.69,35.06,16.89,78.69,6.92,116.52c-4.65,17.63-11.86,34.6-22.13,49.71
	c-9.91,14.58-22.13,27.31-35.28,38.97c1.55,0.16,3.12,0.24,4.7,0.24c41.15,0,74.51-55.43,74.51-123.81S798.66,303.73,757.51,303.73z
	"/>
<path class="st2" d="M714.02,430.27c1.08-15.09-1.28-29.61-5.94-43.96c-3.41-10.49-7.54-20.71-11.01-31.16
	c-1.22,2.8-2.37,5.68-3.45,8.66c11.15,17.48,15.97,37.36,13.79,58.83c-2.23,22.02-9.34,43.12-15.26,64.39
	c0.83,2.52,1.72,4.97,2.65,7.38C706.29,475.22,712.47,451.86,714.02,430.27z"/>
</svg>
