<?xml version="1.0" encoding="utf-8"?>
<!-- Generator: Adobe Illustrator 24.0.1, SVG Export Plug-In . SVG Version: 6.00 Build 0)  -->
<svg version="1.1" id="Layer_1" xmlns="http://www.w3.org/2000/svg" xmlns:xlink="http://www.w3.org/1999/xlink" x="0px" y="0px"
	 viewBox="0 0 1366 768" style="enable-background:new 0 0 1366 768;" xml:space="preserve">
<style type="text/css">
	.st0{fill:#FFFFFF;}
	.st1{fill:#D1D3D4;}
	.st2{fill:#F1F2F2;}
	.st3{fill:none;}
	.st4{fill:#262262;}
	.st5{font-family:'Constantia';}
	.st6{font-size:67.8201px;}
	.st7{fill:#414042;}
</style>
<g>
	<path class="st0" d="M258.98,480.22h-2.95c-1.63,0-2.97-1.33-2.97-2.97v-80.71c0-1.63,1.33-2.97,2.97-2.97h2.95
		c1.63,0,2.97,1.33,2.97,2.97v80.71C261.95,478.88,260.61,480.22,258.98,480.22z"/>
	<ellipse class="st1" cx="589.67" cy="420.44" rx="293.93" ry="276.48"/>
	<path class="st2" d="M824.22,535.95H403.31c-9.71,0,420.92-217.63,420.92-217.63c9.71,0,17.65,7.95,17.65,17.66v182.31
		C841.88,528,833.93,535.95,824.22,535.95z"/>
	<path class="st2" d="M351,288.89l420.89,4.8c9.71,0.11-423.37,212.81-423.37,212.81c-9.71-0.11-17.56-8.15-17.45-17.86l2.08-182.3
		C333.26,296.63,341.29,288.77,351,288.89z"/>
	<rect x="453.57" y="423.97" class="st3" width="62.85" height="9.89"/>
	<polygon class="st3" points="504.42,448.66 787.94,471.23 787.94,488.89 504.42,466.32 	"/>
	<text transform="matrix(0.9296 -0.4691 0.4503 0.8929 453.5734 506.4991)" class="st4 st5 st6">VOYAGE</text>
	<g>
		<path class="st7" d="M732.5,422.41c-2.9,87.26-3.31,111.15-3.13,111.46c0.72,1.23,2.51-1.33,3.5-0.3c1.4,1.44,3.16,2.3,5.07,2.28
			c4.45-0.04,8.05-4.83,8-10.65l-0.93-104.65c-0.02-1.69-1.78-2.75-3.31-2.04c-2.25,1.05-4.59,1.57-6.98,1.67
			C733.52,420.23,732.54,421.2,732.5,422.41z"/>
		<path class="st7" d="M734.53,428.7c0.58,0.09,1.06,0.28,1.48,0.53c4.62,0.82,9.22,0.16,12.82-3.87c0.25-0.27,0.5-0.51,0.8-0.6
			c0.98-0.3,1.75-1.06,1.74-2.09l-0.83-93.52c-0.01-0.62-0.25-1.21-0.7-1.64c-4.35-4.16-8.78-6.68-13.12-5.02
			c-4.76,1.81-6.47,7.1-7.62,12.1c-2.55,11.03-3.45,22.76-4.17,34.1c-0.86,13.61-1.53,27.69-0.62,41.32
			C724.79,417.21,727.15,427.55,734.53,428.7z"/>
	</g>
	<g>
		<path class="st7" d="M799.47,535.4h-7.73c-3.51,0-6.38-2.87-6.38-6.37v-149.3c0-3.51,2.87-6.38,6.38-6.38h7.73
			c3.51,0,6.38,2.87,6.38,6.38v149.3C805.85,532.53,802.98,535.4,799.47,535.4z"/>
		<ellipse class="st7" cx="795.09" cy="360.33" rx="32.77" ry="44.64"/>
	</g>
	<g>
		<path class="st7" d="M384.74,535.4L384.74,535.4c-5.35,0-9.73-2.4-9.73-5.34c0,0,4.38-169.73,9.73-169.73h0
			c5.35,0,9.73,169.73,9.73,169.73C394.47,533,390.09,535.4,384.74,535.4z"/>
		<path class="st7" d="M393.88,382.61H375.6c-9.51,0-17.29-7.78-17.29-17.29v-66.3c0-9.51,7.78-17.29,17.29-17.29h18.27
			c9.51,0,17.29,7.78,17.29,17.29v66.3C411.16,374.83,403.38,382.61,393.88,382.61z"/>
		<path d="M393.59,314.14c0.11,0,0.19,0.11,0.19,0.25l0,0c0,0.14-0.09,0.25-0.19,0.25h-7.85c-0.11,0-0.19-0.11-0.19-0.25l0,0
			C385.54,314.25,393.59,314.14,393.59,314.14z"/>
		<path class="st0" d="M373.14,363.53h-1.97c-1.03,0-1.87-0.84-1.87-1.87V276.8c0-1.03,0.84-1.87,1.87-1.87h1.97
			c1.03,0,1.87,0.84,1.87,1.87v84.86C375.01,362.69,374.17,363.53,373.14,363.53z"/>
		<path class="st0" d="M384.3,363.53h-1.83c-0.95,0-1.73-0.78-1.73-1.73v-87.28c0-0.95,0.78-1.73,1.73-1.73h1.83
			c0.95,0,1.73,0.78,1.73,1.73v87.28C386.03,362.76,385.25,363.53,384.3,363.53z"/>
		<path class="st0" d="M396.18,363.53h-2.06c-1.07,0-1.95-0.88-1.95-1.95v-84.71c0-1.07,0.88-1.95,1.95-1.95h2.06
			c1.07,0,1.95,0.88,1.95,1.95v84.71C398.13,362.66,397.25,363.53,396.18,363.53z"/>
	</g>
	<path class="st7" d="M390.17,321.04h-1.91c-0.55,0-0.99-0.45-0.99-0.99v-8.57c0-0.55,0.45-0.99,0.99-0.99h1.91
		c0.55,0,0.99,0.45,0.99,0.99v8.57C391.17,320.59,390.72,321.04,390.17,321.04z"/>
	<path class="st0" d="M395.85,366.71h-2.41c-1.25,0-2.28-1.02-2.28-2.28v-87.22c0-1.25,1.02-2.28,2.28-2.28h2.41
		c1.25,0,2.28,1.02,2.28,2.28v87.22C398.13,365.68,397.1,366.71,395.85,366.71z"/>
	<path class="st0" d="M385.13,366.71h-2.26c-1.17,0-2.14-0.96-2.14-2.14v-89.64c0-1.17,0.96-2.14,2.14-2.14h2.26
		c1.17,0,2.14,0.96,2.14,2.14v89.64C387.27,365.74,386.31,366.71,385.13,366.71z"/>
	<path class="st0" d="M374.1,366.71h-2.47c-1.28,0-2.34-1.05-2.34-2.34v-87.1c0-1.28,1.05-2.34,2.34-2.34h2.47
		c1.28,0,2.34,1.05,2.34,2.34v87.1C376.44,365.66,375.39,366.71,374.1,366.71z"/>
	<rect x="362.36" y="263.58" class="st1" width="47.33" height="22.7"/>
</g>
</svg>
